<svg data-v-423bf9ae="" xmlns="http://www.w3.org/2000/svg" viewBox="0 0 538 90" class="iconLeft"><!----><!----><!----><g data-v-423bf9ae="" id="718345b3-7e1d-4613-92f5-ddcf5a685c18" fill="black" transform="matrix(4.559270569581267,0,0,4.559270569581267,252.05582151197618,-18.009117880234157)"><path d="M6.79 17.60L0.92 17.60L0.92 7.24L6.54 7.24L6.54 8.09L1.93 8.09L1.93 11.73L5.24 11.73L5.24 12.58L1.93 12.58L1.93 16.69L6.79 16.69L6.79 17.60ZM8.28 11.15L7.06 11.15L7.06 10.38L8.28 10.38L8.28 7.75L9.18 7.75L9.18 10.38L10.83 10.38L10.83 11.15L9.18 11.15L9.18 15.72L9.18 15.72Q9.18 16.41 9.39 16.67L9.39 16.67L9.39 16.67Q9.60 16.92 10.09 16.92L10.09 16.92L10.09 16.92Q10.29 16.92 10.56 16.88L10.56 16.88L10.56 16.88Q10.83 16.85 10.83 16.84L10.83 16.84L10.83 17.52L10.83 17.52Q10.38 17.68 9.96 17.68L9.96 17.68L9.96 17.68Q9.53 17.68 9.37 17.66L9.37 17.66L9.37 17.66Q9.21 17.64 8.99 17.53L8.99 17.53L8.99 17.53Q8.76 17.42 8.62 17.23L8.62 17.23L8.62 17.23Q8.28 16.75 8.28 15.72L8.28 15.72L8.28 11.15ZM12.74 17.60L11.84 17.60L11.84 7.24L12.74 7.24L12.74 11.57L12.74 11.57Q13.75 10.60 14.40 10.40L14.40 10.40L14.40 10.40Q14.74 10.31 15.10 10.31L15.10 10.31L15.10 10.31Q15.89 10.31 16.39 10.79L16.39 10.79L16.39 10.79Q16.90 11.27 16.90 12.22L16.90 12.22L16.90 17.60L16.00 17.60L16.00 12.22L16.00 12.22Q16.00 11.71 15.63 11.39L15.63 11.39L15.63 11.39Q15.26 11.07 14.84 11.07L14.84 11.07L14.84 11.07Q13.83 11.07 12.74 12.26L12.74 12.26L12.74 17.60ZM18.85 16.58L18.85 16.58L18.85 16.58Q18.51 16.08 18.34 15.47L18.34 15.47L18.34 15.47Q18.16 14.85 18.16 14.18L18.16 14.18L18.16 14.18Q18.16 13.50 18.26 12.94L18.26 12.94L18.26 12.94Q18.35 12.39 18.51 12.00L18.51 12.00L18.51 12.00Q18.67 11.61 18.89 11.30L18.89 11.30L18.89 11.30Q19.12 11.00 19.36 10.81L19.36 10.81L19.36 10.81Q19.60 10.63 19.88 10.51L19.88 10.51L19.88 10.51Q20.36 10.31 20.80 10.31L20.80 10.31L20.80 10.31Q21.24 10.31 21.55 10.39L21.55 10.39L21.55 10.39Q21.85 10.47 22.21 10.71L22.21 10.71L22.21 10.71Q22.56 10.95 22.81 11.35L22.81 11.35L22.81 11.35Q23.40 12.28 23.40 14.09L23.40 14.09L19.07 14.09L19.07 14.09Q19.07 15.91 19.99 16.58L19.99 16.58L19.99 16.58Q20.45 16.91 21.01 16.91L21.01 16.91L21.01 16.91Q22.06 16.91 22.80 15.60L22.80 15.60L23.42 16.03L23.42 16.03Q23.15 16.52 22.72 16.92L22.72 16.92L22.72 16.92Q21.90 17.67 21.10 17.67L21.10 17.67L21.10 17.67Q20.30 17.67 19.74 17.38L19.74 17.38L19.74 17.38Q19.18 17.08 18.85 16.58ZM19.11 13.32L19.11 13.32L22.50 13.32L22.50 13.32Q22.50 12.30 22.03 11.63L22.03 11.63L22.03 11.63Q21.63 11.07 20.90 11.07L20.90 11.07L20.90 11.07Q19.70 11.07 19.30 12.18L19.30 12.18L19.30 12.18Q19.11 12.70 19.11 13.32ZM25.70 17.60L24.79 17.60L24.79 17.60Q24.79 17.60 24.79 10.38L24.79 10.38L25.70 10.38L25.70 12.33L25.70 12.33Q26.02 11.61 26.19 11.35L26.19 11.35L26.19 11.35Q26.86 10.31 27.92 10.31L27.92 10.31L27.92 10.31Q28.01 10.31 28.17 10.32L28.17 10.32L28.17 11.09L28.17 11.09Q27.71 11.15 27.40 11.26L27.40 11.26L27.40 11.26Q27.09 11.38 26.80 11.62L26.80 11.62L26.80 11.62Q26.28 12.04 25.70 13.31L25.70 13.31L25.70 17.60ZM33.78 17.60L32.76 17.60L32.76 7.24L36.38 7.24L36.38 7.24Q37.99 7.24 38.75 8.51L38.75 8.51L38.75 8.51Q39.14 9.18 39.14 9.85L39.14 9.85L39.14 9.85Q39.14 10.51 38.99 11.01L38.99 11.01L38.99 11.01Q38.84 11.50 38.53 11.93L38.53 11.93L38.53 11.93Q38.22 12.36 37.67 12.61L37.67 12.61L37.67 12.61Q37.11 12.87 36.38 12.87L36.38 12.87L33.78 12.87L33.78 17.60ZM33.78 8.09L33.78 12.02L35.69 12.02L35.69 12.02Q36.80 12.02 37.46 11.53L37.46 11.53L37.46 11.53Q38.13 11.05 38.13 10.05L38.13 10.05L38.13 10.05Q38.13 9.05 37.46 8.57L37.46 8.57L37.46 8.57Q36.79 8.09 35.69 8.09L35.69 8.09L33.78 8.09ZM41.27 17.60L40.37 17.60L40.37 17.60Q40.37 17.60 40.37 10.38L40.37 10.38L41.27 10.38L41.27 12.33L41.27 12.33Q41.59 11.61 41.76 11.35L41.76 11.35L41.76 11.35Q42.43 10.31 43.50 10.31L43.50 10.31L43.50 10.31Q43.58 10.31 43.74 10.32L43.74 10.32L43.74 11.09L43.74 11.09Q43.28 11.15 42.97 11.26L42.97 11.26L42.97 11.26Q42.66 11.38 42.37 11.62L42.37 11.62L42.37 11.62Q41.86 12.04 41.27 13.31L41.27 13.31L41.27 17.60ZM44.16 13.94L44.16 13.94L44.16 13.94Q44.16 12.29 44.90 11.30L44.90 11.30L44.90 11.30Q45.64 10.31 46.98 10.31L46.98 10.31L46.98 10.31Q48.31 10.31 49.04 11.31L49.04 11.31L49.04 11.31Q49.78 12.30 49.78 13.97L49.78 13.97L49.78 13.97Q49.78 15.64 49.04 16.66L49.04 16.66L49.04 16.66Q48.30 17.68 46.98 17.68L46.98 17.68L46.98 17.68Q45.63 17.68 44.88 16.63L44.88 16.63L44.88 16.63Q44.16 15.59 44.16 13.94ZM45.06 13.99L45.06 13.99L45.06 13.99Q45.06 16.15 46.19 16.73L46.19 16.73L46.19 16.73Q46.53 16.91 46.98 16.91L46.98 16.91L46.98 16.91Q47.42 16.91 47.77 16.73L47.77 16.73L47.77 16.73Q48.11 16.56 48.32 16.28L48.32 16.28L48.32 16.28Q48.52 16.00 48.65 15.60L48.65 15.60L48.65 15.60Q48.88 14.91 48.88 13.99L48.88 13.99L48.88 13.99Q48.88 11.07 46.97 11.07L46.97 11.07L46.97 11.07Q45.06 11.07 45.06 13.99ZM52.08 20.40L51.17 20.40L51.17 10.38L52.08 10.38L52.08 11.50L52.08 11.50Q52.24 11.20 52.62 10.89L52.62 10.89L52.62 10.89Q53.33 10.31 54.10 10.31L54.10 10.31L54.10 10.31Q55.54 10.31 56.29 11.88L56.29 11.88L56.29 11.88Q56.72 12.78 56.72 13.86L56.72 13.86L56.72 13.86Q56.72 15.74 55.79 16.86L55.79 16.86L55.79 16.86Q55.13 17.67 54.01 17.67L54.01 17.67L54.01 17.67Q53.38 17.67 52.79 17.29L52.79 17.29L52.79 17.29Q52.21 16.91 52.08 16.64L52.08 16.64L52.08 20.40ZM52.08 12.27L52.08 15.86L52.08 15.86Q52.39 16.31 52.84 16.61L52.84 16.61L52.84 16.61Q53.29 16.91 53.70 16.91L53.70 16.91L53.70 16.91Q54.11 16.91 54.38 16.83L54.38 16.83L54.38 16.83Q54.66 16.75 54.93 16.54L54.93 16.54L54.93 16.54Q55.20 16.33 55.39 16.00L55.39 16.00L55.39 16.00Q55.82 15.26 55.82 13.86L55.82 13.86L55.82 13.86Q55.82 12.15 55.02 11.45L55.02 11.45L55.02 11.45Q54.60 11.07 53.96 11.07L53.96 11.07L53.96 11.07Q53.09 11.07 52.45 11.80L52.45 11.80L52.45 11.80Q52.29 11.98 52.08 12.27L52.08 12.27ZM57.78 16.23L57.78 16.23L58.45 15.79L58.45 15.79Q58.82 16.35 59.26 16.63L59.26 16.63L59.26 16.63Q59.71 16.91 60.35 16.91L60.35 16.91L60.35 16.91Q61.02 16.91 61.43 16.54L61.43 16.54L61.43 16.54Q61.78 16.24 61.78 15.80L61.78 15.80L61.78 15.80Q61.78 15.37 61.63 15.11L61.63 15.11L61.63 15.11Q61.48 14.85 61.21 14.68L61.21 14.68L61.21 14.68Q60.75 14.42 60.26 14.30L60.26 14.30L60.26 14.30Q59.76 14.18 59.48 14.09L59.48 14.09L59.48 14.09Q59.19 13.99 58.89 13.82L58.89 13.82L58.89 13.82Q58.59 13.64 58.37 13.43L58.37 13.43L58.37 13.43Q57.87 12.95 57.87 12.15L57.87 12.15L57.87 12.15Q57.87 11.35 58.51 10.83L58.51 10.83L58.51 10.83Q59.15 10.31 60.14 10.31L60.14 10.31L60.14 10.31Q61.31 10.31 62.12 11.15L62.12 11.15L62.12 11.15Q62.27 11.31 62.37 11.46L62.37 11.46L61.75 11.92L61.75 11.92Q61.70 11.87 61.56 11.72L61.56 11.72L61.56 11.72Q61.41 11.57 61.37 11.53L61.37 11.53L61.20 11.38L61.20 11.38Q61.07 11.27 60.99 11.24L60.99 11.24L60.76 11.16L60.76 11.16Q60.54 11.07 60.02 11.07L60.02 11.07L60.02 11.07Q59.50 11.07 59.12 11.37L59.12 11.37L59.12 11.37Q58.75 11.67 58.75 12.02L58.75 12.02L58.75 12.02Q58.75 12.38 58.87 12.60L58.87 12.60L58.87 12.60Q58.99 12.81 59.24 12.97L59.24 12.97L59.24 12.97Q59.64 13.21 60.16 13.37L60.16 13.37L60.16 13.37Q60.68 13.53 60.84 13.58L60.84 13.58L60.84 13.58Q61.01 13.64 61.29 13.75L61.29 13.75L61.29 13.75Q61.58 13.86 61.74 13.97L61.74 13.97L61.74 13.97Q61.90 14.07 62.10 14.24L62.10 14.24L62.10 14.24Q62.31 14.40 62.42 14.59L62.42 14.59L62.42 14.59Q62.69 15.05 62.69 15.60L62.69 15.60L62.69 15.60Q62.69 16.51 62.00 17.09L62.00 17.09L62.00 17.09Q61.30 17.67 60.40 17.67L60.40 17.67L60.40 17.67Q59.49 17.67 58.87 17.33L58.87 17.33L58.87 17.33Q58.25 16.98 57.78 16.23Z"></path></g><!----><g data-v-423bf9ae="" id="28b298e5-ff87-432c-830d-db1d9ccf0633" transform="matrix(2.625004172331766,0,0,2.625004172331766,461.2694058361007,-550.0710756944685)" stroke="none" fill="black"><switch><g><path d="M-109.975 244.175h-15.374a.5.5 0 0 1-.5-.5v-11.828c0-1.327-.91-2.407-2.029-2.407h-5.055c-1.119 0-2.029 1.08-2.029 2.407v11.828a.5.5 0 0 1-.5.5h-15.586a.5.5 0 0 1-.5-.5v-22.66h-.478c-.974 0-1.766-.876-1.766-1.953v-1.268c0-1.03.703-2.026 1.601-2.269l20.271-5.487c.74-.199 1.987-.198 2.723.002l20.239 5.483c.897.245 1.6 1.242 1.6 2.271v1.268c0 1.077-.792 1.953-1.765 1.953h-.351v22.66a.501.501 0 0 1-.501.5zm-14.874-1h14.374v-22.66a.5.5 0 0 1 .5-.5h.851c.415 0 .765-.437.765-.953v-1.268c0-.57-.403-1.181-.862-1.306l-20.238-5.483c-.562-.151-1.636-.153-2.2-.002l-20.271 5.487c-.459.124-.862.733-.862 1.304v1.268c0 .517.351.953.766.953h.978a.5.5 0 0 1 .5.5v22.66h14.586v-11.328c0-1.879 1.359-3.407 3.029-3.407h5.055c1.67 0 3.029 1.528 3.029 3.407v11.328z"></path><path d="M-109.059 219.361a.3.3 0 0 1-.3-.3v-1.268a.563.563 0 0 0-.17-.359l-1.241-.331a.3.3 0 0 1-.211-.367.296.296 0 0 1 .368-.211l1.288.35c.262.081.565.507.565.919v1.268a.298.298 0 0 1-.299.299zM-112.362 216.663a.311.311 0 0 1-.079-.01l-1.842-.499a.3.3 0 0 1 .157-.58l1.842.499a.3.3 0 0 1-.078.59z"></path><path d="M-114.204 216.164a.311.311 0 0 1-.079-.01l-14.821-4.017a.3.3 0 0 1 .157-.58l14.821 4.017a.3.3 0 0 1-.078.59zM-111.175 242.774h-6.23a.3.3 0 1 1 0-.6h5.931v-14.938a.3.3 0 1 1 .6 0v15.238a.3.3 0 0 1-.301.3zM-111.175 225.248a.3.3 0 0 1-.3-.3v-2.519a.3.3 0 1 1 .6 0v2.519a.3.3 0 0 1-.3.3zM-87.749 244.175h-11.792a.5.5 0 0 1-.5-.5v-9.072c0-.954-.646-1.729-1.44-1.729h-3.876c-.598 0-1.136.478-1.339 1.188a.5.5 0 1 1-.981-.138v-10.981c0-.262.201-.479.461-.498.928-.072 1.655-.934 1.655-1.962v-.657c0-.226.152-.424.37-.482l.58-.156c.584-.158 1.564-.158 2.148 0l15.524 4.206c.736.2 1.312 1.014 1.312 1.854v.973c0 .89-.66 1.614-1.471 1.614h-.152v15.843a.498.498 0 0 1-.499.497zm-11.292-1h10.792v-15.843a.5.5 0 0 1 .5-.5h.652c.255 0 .471-.281.471-.614v-.973c0-.419-.303-.815-.574-.889l-15.524-4.206c-.412-.111-1.214-.111-1.627 0l-.21.057v.274c0 1.379-.898 2.561-2.116 2.881v8.958a2.202 2.202 0 0 1 1.32-.447h3.876c1.345 0 2.44 1.225 2.44 2.729v8.573z"></path><path d="M-87.327 226.432a.3.3 0 0 1-.3-.3v-.854l-9.441-2.559a.3.3 0 0 1 .157-.58l9.606 2.604a.3.3 0 0 1 .215.23l.001.006a.754.754 0 0 1 .062.267v.887a.3.3 0 0 1-.3.299zM-99.147 222.144a.311.311 0 0 1-.079-.01l-2.394-.648a.3.3 0 0 1 .157-.58l2.394.648a.3.3 0 0 1-.078.59zM-88.949 242.774h-2.838a.3.3 0 1 1 0-.6h2.538v-8.341a.3.3 0 1 1 .6 0v8.641a.3.3 0 0 1-.3.3zM-88.949 232.218a.3.3 0 0 1-.3-.3v-1.834a.3.3 0 1 1 .6 0v1.834a.3.3 0 0 1-.3.3zM-161.712 244.175h-11.792a.5.5 0 0 1-.5-.5v-15.843h-.152c-.811 0-1.471-.725-1.471-1.614v-.973c0-.84.576-1.653 1.312-1.854l15.524-4.206c.584-.158 1.563-.158 2.148 0l.58.156a.5.5 0 0 1 .37.482v.657c0 1.028.727 1.89 1.655 1.962.26.02.461.236.461.498v10.981a.5.5 0 0 1-.981.138c-.203-.71-.741-1.188-1.339-1.188h-3.876c-.794 0-1.44.775-1.44 1.729v9.072a.5.5 0 0 1-.499.503zm-11.292-1h10.792v-8.572c0-1.505 1.095-2.729 2.44-2.729h3.876c.481 0 .937.162 1.32.447v-8.958c-1.218-.32-2.116-1.502-2.116-2.881v-.274l-.21-.057c-.414-.11-1.215-.11-1.627 0l-15.523 4.206c-.271.073-.574.47-.574.889v.973c0 .333.215.614.471.614h.652a.5.5 0 0 1 .5.5v15.842z"></path><path d="M-162.912 242.774h-2.647a.3.3 0 1 1 0-.6h2.347v-3.122a.3.3 0 1 1 .6 0v3.422a.3.3 0 0 1-.3.3zM-162.912 237.803a.3.3 0 0 1-.3-.3v-1.049a.3.3 0 1 1 .6 0v1.049a.3.3 0 0 1-.3.3zM-155.276 231.541a.281.281 0 0 1-.065-.007 2.516 2.516 0 0 0-.554-.062h-3.517a.3.3 0 1 1 0-.6h3.517c.107 0 .213.005.32.016v-3.281a.3.3 0 1 1 .6 0v3.634a.3.3 0 0 1-.301.3zM-109.975 220.343h-41.073a.25.25 0 0 1 0-.5h41.073a.25.25 0 0 1 0 .5zM-154.076 227.107h-19.428a.25.25 0 0 1 0-.5h19.428a.25.25 0 0 1 0 .5zM-87.749 227.107h-19.428a.25.25 0 0 1 0-.5h19.428a.25.25 0 0 1 0 .5z"></path></g></switch></g><!----></svg>